<svg width="114" height="19" viewBox="0 0 114 19" fill="none" xmlns="http://www.w3.org/2000/svg">
<path d="M35.7586 0.899993C35.7586 0.737414 35.6891 0.597774 35.5571 0.496484C35.4337 0.401947 35.2615 0.353648 35.0459 0.353648H32.0167C31.6164 0.353648 31.2875 0.51566 31.0389 0.834632L27.5886 5.42302L30.1135 8.38944L35.5545 1.40866C35.6891 1.22371 35.7586 1.05371 35.7586 0.899993Z" fill="#0D1737"/>
<path d="M28.7752 9.46966C28.9051 9.30919 28.9042 9.07708 28.7735 8.91769L26.1125 5.66823L22.4978 0.835508C22.2654 0.513546 21.9376 0.353648 21.5197 0.353648H18.467C18.252 0.353648 18.0773 0.400762 17.9474 0.493495C17.8035 0.596331 17.7307 0.73329 17.7307 0.899941C17.7307 1.05371 17.8002 1.22397 17.9431 1.42036L23.7009 8.75073C23.9012 9.00579 23.9015 9.36187 23.7018 9.61724L18.0755 16.8159C17.9421 17 17.8726 17.1702 17.8726 17.3246C17.8726 17.4915 17.9451 17.6279 18.0876 17.7295C18.219 17.8238 18.394 17.8712 18.6089 17.8712H21.662C22.0796 17.8712 22.4047 17.7139 22.6289 17.4037L26.5593 12.1716L28.7752 9.46966Z" fill="#0D1737"/>
<path d="M11.17 4.23162V10.5975C11.17 12.5529 9.6404 14.2352 7.68522 14.2657C5.70345 14.2967 4.08725 12.6995 4.08725 10.7248V4.23162C4.08725 3.7711 3.7139 3.3977 3.25328 3.3977H0.833874C0.373302 3.3977 0 3.7711 0 4.23162V10.5329C0 15.0331 3.68436 18.651 8.17337 18.3343C12.1323 18.055 15.2574 14.7549 15.2574 10.7248V4.23162C15.2574 3.7711 14.8839 3.3977 14.4234 3.3977H12.004C11.5434 3.3977 11.17 3.7711 11.17 4.23162Z" fill="#0D1737"/>
<path d="M31.8744 17.8714H34.9278C35.1431 17.8714 35.3156 17.8231 35.4399 17.7277C35.5704 17.6269 35.6399 17.4874 35.6399 17.3248C35.6399 17.2276 35.6169 17.0668 35.4204 16.7941L30.0826 9.94853L27.5886 13.0189L30.9081 17.4049C31.1473 17.7124 31.4739 17.8714 31.8744 17.8714Z" fill="#0D1837"/>
<path d="M49.2302 9.09375L45.9063 9.2983C45.8495 9.0142 45.7273 8.75852 45.5398 8.53125C45.3523 8.2983 45.1052 8.11364 44.7984 7.97727C44.4972 7.83523 44.1364 7.76421 43.716 7.76421C43.1535 7.76421 42.679 7.88352 42.2927 8.12216C41.9063 8.35511 41.7131 8.66761 41.7131 9.05966C41.7131 9.37216 41.8381 9.63636 42.0881 9.85227C42.3381 10.0682 42.7671 10.2415 43.3751 10.3722L45.7444 10.8494C47.0171 11.1108 47.966 11.5312 48.591 12.1108C49.216 12.6903 49.5285 13.4517 49.5285 14.3949C49.5285 15.2528 49.2756 16.0057 48.7699 16.6534C48.2699 17.3011 47.5824 17.8068 46.7074 18.1705C45.8381 18.5284 44.8353 18.7074 43.6989 18.7074C41.966 18.7074 40.5853 18.3466 39.5569 17.625C38.5341 16.8977 37.9347 15.9091 37.7586 14.6591L41.3296 14.4716C41.4376 15 41.6989 15.4034 42.1137 15.6818C42.5285 15.9545 43.0597 16.0909 43.7074 16.0909C44.3438 16.0909 44.8552 15.9688 45.2415 15.7244C45.6336 15.4744 45.8324 15.1534 45.8381 14.7614C45.8324 14.4318 45.6932 14.1619 45.4205 13.9517C45.1478 13.7358 44.7273 13.571 44.1591 13.4574L41.8921 13.0057C40.6137 12.75 39.662 12.3068 39.037 11.6761C38.4177 11.0455 38.108 10.2415 38.108 9.26421C38.108 8.4233 38.3353 7.69886 38.7898 7.09091C39.2501 6.48296 39.8949 6.01421 40.7245 5.68466C41.5597 5.35511 42.537 5.19034 43.6563 5.19034C45.3097 5.19034 46.6109 5.53977 47.5597 6.23864C48.5143 6.9375 49.0711 7.88921 49.2302 9.09375Z" fill="#0D1737"/>
<path d="M59.3778 5.3608V8.08807H51.4942V5.3608H59.3778ZM53.284 2.22443H56.9147V14.429C56.9147 14.7642 56.9658 15.0256 57.0681 15.2131C57.1704 15.3949 57.3124 15.5227 57.4942 15.5966C57.6817 15.6705 57.8976 15.7074 58.142 15.7074C58.3124 15.7074 58.4829 15.6932 58.6533 15.6648C58.8238 15.6307 58.9545 15.6051 59.0454 15.5881L59.6164 18.2898C59.4346 18.3466 59.1789 18.4119 58.8493 18.4858C58.5198 18.5653 58.1192 18.6136 57.6476 18.6307C56.7726 18.6648 56.0056 18.5483 55.3465 18.2812C54.6931 18.0142 54.1846 17.5994 53.8209 17.0369C53.4573 16.4744 53.2783 15.7642 53.284 14.9063V2.22443Z" fill="#0D1737"/>
<path d="M70.7377 12.8778V5.3608H74.3684V18.4517H70.8826V16.0739H70.7462C70.4508 16.8409 69.9593 17.4574 69.2718 17.9233C68.59 18.3892 67.7576 18.6222 66.7746 18.6222C65.8996 18.6222 65.1297 18.4233 64.465 18.0256C63.8002 17.6278 63.2803 17.0625 62.9053 16.3295C62.536 15.5966 62.3485 14.7188 62.3428 13.696V5.3608H65.9735V13.0483C65.9792 13.821 66.1866 14.4318 66.5956 14.8807C67.0047 15.3295 67.553 15.554 68.2405 15.554C68.678 15.554 69.0871 15.4545 69.4678 15.2557C69.8485 15.0511 70.1553 14.75 70.3883 14.3523C70.6269 13.9545 70.7434 13.4631 70.7377 12.8778Z" fill="#0D1737"/>
<path d="M82.6964 18.6648C81.702 18.6648 80.8015 18.4091 79.9947 17.8977C79.1935 17.3807 78.5572 16.6222 78.0856 15.6222C77.6197 14.6165 77.3867 13.3835 77.3867 11.9233C77.3867 10.4233 77.6282 9.17614 78.1111 8.18182C78.5941 7.18182 79.2361 6.43466 80.0373 5.94034C80.8441 5.44034 81.7276 5.19034 82.6878 5.19034C83.4208 5.19034 84.0316 5.31534 84.5202 5.56534C85.0145 5.80966 85.4123 6.11648 85.7134 6.4858C86.0202 6.84943 86.2532 7.20739 86.4123 7.55966H86.5231V0.997159H90.1452V18.4517H86.5657V16.3551H86.4123C86.2418 16.7188 86.0003 17.0795 85.6878 17.4375C85.381 17.7898 84.9804 18.0824 84.4861 18.3153C83.9975 18.5483 83.4009 18.6648 82.6964 18.6648ZM83.8469 15.7756C84.4322 15.7756 84.9265 15.6165 85.3299 15.2983C85.739 14.9744 86.0515 14.5227 86.2674 13.9432C86.489 13.3636 86.5998 12.6847 86.5998 11.9063C86.5998 11.1278 86.4918 10.4517 86.2759 9.87784C86.06 9.30398 85.7475 8.8608 85.3384 8.5483C84.9293 8.2358 84.4322 8.07955 83.8469 8.07955C83.2503 8.07955 82.7475 8.24148 82.3384 8.56534C81.9293 8.8892 81.6197 9.33807 81.4094 9.91193C81.1992 10.4858 81.0941 11.1506 81.0941 11.9063C81.0941 12.6676 81.1992 13.3409 81.4094 13.9261C81.6253 14.5057 81.935 14.9602 82.3384 15.2898C82.7475 15.6136 83.2503 15.7756 83.8469 15.7756Z" fill="#0D1737"/>
<path d="M93.7303 18.4517V5.3608H97.361V18.4517H93.7303ZM95.5542 3.6733C95.0144 3.6733 94.5513 3.49432 94.165 3.13636C93.7843 2.77273 93.5939 2.33807 93.5939 1.83239C93.5939 1.33239 93.7843 0.903409 94.165 0.545455C94.5513 0.181818 95.0144 0 95.5542 0C96.0939 0 96.5542 0.181818 96.9349 0.545455C97.3212 0.903409 97.5144 1.33239 97.5144 1.83239C97.5144 2.33807 97.3212 2.77273 96.9349 3.13636C96.5542 3.49432 96.0939 3.6733 95.5542 3.6733Z" fill="#0D1737"/>
<path d="M106.784 18.7074C105.46 18.7074 104.315 18.4261 103.349 17.8636C102.389 17.2955 101.648 16.5057 101.125 15.4943C100.602 14.4773 100.341 13.2983 100.341 11.9574C100.341 10.6051 100.602 9.4233 101.125 8.41193C101.648 7.39489 102.389 6.60511 103.349 6.04261C104.315 5.47443 105.46 5.19034 106.784 5.19034C108.108 5.19034 109.25 5.47443 110.21 6.04261C111.176 6.60511 111.921 7.39489 112.443 8.41193C112.966 9.4233 113.227 10.6051 113.227 11.9574C113.227 13.2983 112.966 14.4773 112.443 15.4943C111.921 16.5057 111.176 17.2955 110.21 17.8636C109.25 18.4261 108.108 18.7074 106.784 18.7074ZM106.801 15.8949C107.403 15.8949 107.906 15.7244 108.31 15.3835C108.713 15.0369 109.017 14.5653 109.222 13.9688C109.432 13.3722 109.537 12.6932 109.537 11.9318C109.537 11.1705 109.432 10.4915 109.222 9.89489C109.017 9.2983 108.713 8.8267 108.31 8.48011C107.906 8.13352 107.403 7.96023 106.801 7.96023C106.193 7.96023 105.682 8.13352 105.267 8.48011C104.858 8.8267 104.548 9.2983 104.338 9.89489C104.134 10.4915 104.031 11.1705 104.031 11.9318C104.031 12.6932 104.134 13.3722 104.338 13.9688C104.548 14.5653 104.858 15.0369 105.267 15.3835C105.682 15.7244 106.193 15.8949 106.801 15.8949Z" fill="#0D1737"/>
</svg>
